<svg xmlns="http://www.w3.org/2000/svg">
  <symbol id="bed" viewBox="0 0 256 256" fill-rule="evenodd">
    <path d="M246.551 243.882l-4.319-20.005c-.03-.142-.119-.251-.168-.384.359-.82.562-1.719.562-2.669v-38.473c0-3.699-3.011-6.707-6.712-6.707h-6.015c-.381-5.568-6.219-11.024-12.679-15.404v-32.16c0-19.101-9.551-29.617-26.899-29.617H65.981c-17.342 0-26.894 10.519-26.894 29.617v32.335c-6.457 4.273-12.297 9.643-12.681 15.229h-5.995c-3.701 0-6.712 3.008-6.712 6.707v38.473c0 .795.163 1.547.42 2.255-.14.254-.285.503-.351.801L9.45 243.884a3.014 3.014 0 0 0 2.949 3.653 3.021 3.021 0 0 0 2.947-2.382l3.83-17.752c.402.076.811.124 1.232.124h215.504c.315 0 .614-.05.914-.091l3.823 17.716a3.018 3.018 0 0 0 5.902-1.27zM45.12 128.08c0-15.869 6.824-23.584 20.861-23.584h124.34c14.04 0 20.866 7.715 20.866 23.584v28.433a120.186 120.186 0 0 0-9.173-4.681v-2.106c0-2.195-3.277-15.516-9.097-18.217-4.984-2.309-16.776-3.686-25.296-3.686s-20.312 1.377-25.299 3.689c-5.817 2.7-9.094 16.022-9.094 18.216v1.39l-10.024.035v-1.425c0-2.194-3.28-15.518-9.102-18.216-4.979-2.307-16.774-3.686-25.294-3.686s-20.312 1.377-25.298 3.688c-5.818 2.701-9.097 16.022-9.097 18.217v2.479a116.7 116.7 0 0 0-9.295 4.583V128.08h.002zm94.139 23.012v-1.333c.122-2.345 3.414-11.759 5.601-12.775 3.196-1.481 13.329-3.127 22.761-3.127 9.432 0 19.565 1.648 22.758 3.127 2.19 1.016 5.482 10.43 5.602 12.744v1.169l-56.722.195zm-78.813.28v-1.613c.119-2.345 3.412-11.759 5.601-12.775 3.196-1.481 13.329-3.127 22.761-3.127 9.435 0 19.566 1.648 22.756 3.127 2.193 1.016 5.485 10.43 5.607 12.742v1.445l-56.725.201zm-2.886 6.043l141.06-.498c10.065 4.481 24.257 13.144 25.195 18.727H32.49c.917-5.588 14.792-13.826 25.07-18.229zm-37.149 24.263h215.503c.369 0 .679.307.679.673v9.531c-.224-.053-.437-.137-.679-.137H20.411c-.241 0-.452.084-.678.137v-9.531c0-.366.31-.673.678-.673zm0 39.819a.686.686 0 0 1-.678-.676v-23.18c.226.053.437.137.678.137h215.503c.242 0 .455-.084.679-.137v23.18a.688.688 0 0 1-.679.676H20.411z"/>
  </symbol>
  <symbol id="tub" viewBox="0 0 256 256" fill-rule="evenodd">
    <path d="M245.532 149.933c0-6.858-5.576-12.437-12.434-12.437h-15.116V74.441c0-16.563-9.46-27.266-24.1-27.266-9.161 0-17.661 5.321-21.68 13.562-4.78.35-18.082 2.056-21.455 10.272a3.034 3.034 0 0 0 1.655 3.958l28.785 11.819a3.04 3.04 0 0 0 2.321-.008 3.044 3.044 0 0 0 1.637-1.647c3.184-7.767-4.029-17.635-7.492-21.741 3.011-6.168 9.371-10.154 16.232-10.154 11.293 0 18.036 7.925 18.036 21.202v63.056h-94.614v-.991c0-2.05 0-8.288-33.987-8.288-33.986 0-33.986 6.238-33.986 8.288v.991H22.902c-6.858 0-12.434 5.581-12.434 12.437 0 .804.319 1.575.889 2.145l8.512 8.512v13.76c0 29.385 8.855 44.656 25.737 52.617l-5.191 15.011a3.028 3.028 0 0 0 1.874 3.855c.327.115.664.169.991.169a3.031 3.031 0 0 0 2.865-2.043l5.078-14.683c18.195 6.347 44.031 6.35 76.777 6.35 31.487 0 57.78-.021 76.57-6.95l5.285 15.283a3.032 3.032 0 1 0 5.732-1.981l-5.42-15.664c16.596-8.138 25.961-23.381 25.961-51.964v-13.76l8.513-8.512a3.014 3.014 0 0 0 .891-2.143zm-87.14-79.059c3.589-2.681 10.422-3.781 14.188-4.083 2.737 3.154 6.516 8.61 7.19 12.861l-21.378-8.778zM55.398 177.912h55.845v5.653c-2.39 1.317-12.172 3.049-27.923 3.049-15.751 0-25.532-1.732-27.922-3.049v-5.653zm.002-40.582c2.388-1.317 12.169-3.048 27.923-3.048 15.754 0 25.533 1.733 27.922 3.048v34.518H55.4V137.33zm-32.498 6.23h26.437v12.744H24.156l-7.522-7.522c.547-2.967 3.148-5.222 6.268-5.222zM128 229.562c-70.08 0-102.067 0-102.067-55.214v-11.983h23.403v22.022c0 2.05 0 8.288 33.987 8.288 33.986 0 33.986-6.238 33.986-8.288v-22.022h112.758v11.983c0 52.983-31.29 55.214-102.067 55.214zm103.841-73.258H117.307V143.56h115.791c3.12 0 5.721 2.255 6.265 5.222l-7.522 7.522z"/>
  </symbol>
  <symbol id="house" viewBox="0 0 256 256" fill-rule="evenodd">
    <path d="M224.7 230.3v-91.8a2.9 2.9 0 015.8 0v94.7c0 1.6-1.3 2.9-2.9 2.9H28.4a2.9 2.9 0 01-3-3v-94.6a2.9 2.9 0 015.9 0v91.8h193.4z"/>
    <path d="M145.7 168.4c0-1.6-1.3-2.9-2.9-2.9H113a2.9 2.9 0 00-2.9 3v64.7c0 1.6 1.3 2.9 3 2.9h29.8c1.6 0 3-1.3 3-3v-64.7zm-29.9 3v58.9H140v-59h-24zM86 173.4c0-1.6-1.3-3-3-3H53.3a2.9 2.9 0 00-3 3v27.4c0 1.6 1.4 2.9 3 2.9H83c1.6 0 2.9-1.3 2.9-3v-27.3zm-30 2.9v21.6h24.2v-21.6H56zM205.5 173.4c0-1.6-1.3-3-3-3h-29.8a2.9 2.9 0 00-2.9 3v27.4c0 1.6 1.3 2.9 2.9 2.9h29.9c1.6 0 2.9-1.3 2.9-3v-27.3zm-29.9 2.9v21.6h24v-21.6h-24zM86 53.9c0-1.6-1.3-3-3-3H63.2a2.9 2.9 0 00-2.9 3v24.9c0 1.6 1.3 2.9 3 2.9H83c1.6 0 2.9-1.3 2.9-3V54zm-20 2.9v19h14.2v-19H66zM89.2 249.9h77.4a2.9 2.9 0 000-5.8H89.2a2.9 2.9 0 000 5.8z"/>
    <path d="M128 107.2L74.6 141c-.4.3-1 .4-1.5.4H18.3a2.9 2.9 0 01-2.7-3.8l19.9-59.8c.4-1.1 1.5-2 2.7-2h179.6c1.2 0 2.3.9 2.7 2l20 59.8a2.9 2.9 0 01-2.8 3.8h-54.8c-.5 0-1-.1-1.5-.4L128 107.2zm55.8 28.4h49.9l-18-54H40.3l-18 54h50l54.1-34.3c1-.6 2.2-.6 3.2 0l54.2 34.3z"/>
  </symbol>
  <symbol id="sunburst" viewBox="0 0 256 256">
    <path d="M176.87 128H97.258"/>
    <path d="M193.702 138.82l-88.251 32.46"/>
    <path d="M185.083 133.41l-85.844 16.23"/>
    <path d="M202.163 144.23l-87.251 45.888"/>
    <path d="M211.468 149.64l-82.312 59.065"/>
    <path d="M219.544 155.05l-71.293 70.136"/>
    <path d="M227.691 160.46l-58.365 76.338"/>
    <path d="M237.337 165.87l-43.635 78.27"/>
    <path d="M246 171.28l-26.456 74.85"/>
    <path d="M193.702 117.18l-88.251-32.46"/>
    <path d="M185.083 122.59l-85.844-16.23"/>
    <path d="M202.163 111.77l-87.251-45.888"/>
    <path d="M211.468 106.36l-82.312-59.065"/>
    <path d="M219.544 100.95l-71.293-70.136"/>
    <path d="M227.691 95.54l-58.365-76.338"/>
    <path d="M237.337 90.13l-43.635-78.27"/>
    <path d="M246 84.72L219.544 9.87"/>
  </symbol>
  <symbol id="person" fill-rule="evenodd" viewBox="0 0 256 256">
    <path d="M128 6C97.059 6 71.938 31.12 71.938 62.062c0 30.941 25.121 56.062 56.062 56.062s56.062-25.121 56.062-56.062C184.062 31.12 158.941 6 128 6zm0 20c19.903 0 36.062 16.159 36.062 36.062S147.903 98.124 128 98.124 91.938 81.965 91.938 62.062 108.097 26 128 26z"/>
    <path d="M136.009 129.3a10 10 0 0 0-16.018 0L40.662 235.415a10 10 0 0 0 8.009 15.988h158.658a9.999 9.999 0 0 0 8.009-15.988L136.009 129.3zM68.633 231.403h118.734L128 151.989l-59.367 79.414z"/>
  </symbol>
  <symbol id="arrow-left" viewBox="0 0 256 256">
    <path d="M192.106 15.742L79.807 128.041l112.217 112.217a7.503 7.503 0 0 1 0 10.606 7.504 7.504 0 0 1-10.607 0l-117.52-117.52a7.5 7.5 0 0 1 0-10.606L181.499 5.136a7.504 7.504 0 0 1 10.607 0 7.503 7.503 0 0 1 0 10.606z"/>
  </symbol>
  <symbol id="arrow-right" viewBox="0 0 256 256">
    <path d="M63.896 15.742l112.298 112.299L63.977 240.258a7.503 7.503 0 0 0 0 10.606 7.504 7.504 0 0 0 10.607 0l117.52-117.52a7.5 7.5 0 0 0 0-10.606L74.502 5.136a7.503 7.503 0 0 0-10.606 0 7.503 7.503 0 0 0 0 10.606z"/>
  </symbol>
  <symbol id="close" viewBox="0 0 256 256">
    <path d="M17.1 32.692l95.344 95.344-95.273 95.272c-4.293 4.293-4.293 11.264 0 15.557 4.293 4.293 11.264 4.293 15.557 0l103.05-103.051c4.296-4.296 4.296-11.261 0-15.556L32.656 17.135c-4.293-4.293-11.264-4.293-15.556 0-4.293 4.293-4.293 11.264 0 15.557z"/>
    <path d="M223.344 17.135L120.222 120.258c-4.296 4.295-4.296 11.26 0 15.556l103.05 103.051c4.293 4.293 11.264 4.293 15.557 0 4.293-4.293 4.293-11.264 0-15.557l-95.273-95.272L238.9 32.692c4.293-4.293 4.293-11.264 0-15.557-4.292-4.293-11.263-4.293-15.556 0z"/>
  </symbol>
</svg>